<mxfile host="Electron" modified="2024-06-04T08:59:33.982Z" agent="Mozilla/5.0 (X11; Linux x86_64) AppleWebKit/537.36 (KHTML, like Gecko) draw.io/24.4.13 Chrome/124.0.6367.207 Electron/30.0.6 Safari/537.36" etag="xYeuwQesT0_UFssVhS5b" version="24.4.13" type="device">
  <diagram name="Pagina-1" id="si0wQ0l1tiX7Fm2jgNS1">
    <mxGraphModel dx="1434" dy="876" grid="1" gridSize="10" guides="1" tooltips="1" connect="1" arrows="1" fold="1" page="1" pageScale="1" pageWidth="1169" pageHeight="827" math="0" shadow="0">
      <root>
        <mxCell id="0" />
        <mxCell id="1" parent="0" />
        <mxCell id="D0GV_qfvKO89w9xB9qcV-1" value="Cliente" style="shape=umlActor;verticalLabelPosition=bottom;verticalAlign=top;html=1;" vertex="1" parent="1">
          <mxGeometry x="90" y="340" width="30" height="60" as="geometry" />
        </mxCell>
        <mxCell id="D0GV_qfvKO89w9xB9qcV-2" value="Registrazione" style="ellipse;whiteSpace=wrap;html=1;" vertex="1" parent="1">
          <mxGeometry x="300" y="170" width="200" height="70" as="geometry" />
        </mxCell>
        <mxCell id="D0GV_qfvKO89w9xB9qcV-3" value="Prenotazione_Spettacoli" style="ellipse;whiteSpace=wrap;html=1;" vertex="1" parent="1">
          <mxGeometry x="300" y="280" width="200" height="70" as="geometry" />
        </mxCell>
        <mxCell id="D0GV_qfvKO89w9xB9qcV-4" value="Consultazione_Programmazioni" style="ellipse;whiteSpace=wrap;html=1;" vertex="1" parent="1">
          <mxGeometry x="300" y="390" width="200" height="70" as="geometry" />
        </mxCell>
        <mxCell id="D0GV_qfvKO89w9xB9qcV-5" value="Suggerimenti_Spettacoli" style="ellipse;whiteSpace=wrap;html=1;" vertex="1" parent="1">
          <mxGeometry x="300" y="500" width="200" height="70" as="geometry" />
        </mxCell>
        <mxCell id="D0GV_qfvKO89w9xB9qcV-7" value="" style="endArrow=none;html=1;rounded=0;entryX=0;entryY=0.5;entryDx=0;entryDy=0;" edge="1" parent="1" source="D0GV_qfvKO89w9xB9qcV-1" target="D0GV_qfvKO89w9xB9qcV-2">
          <mxGeometry width="50" height="50" relative="1" as="geometry">
            <mxPoint x="400" y="420" as="sourcePoint" />
            <mxPoint x="450" y="370" as="targetPoint" />
          </mxGeometry>
        </mxCell>
        <mxCell id="D0GV_qfvKO89w9xB9qcV-8" value="" style="endArrow=none;html=1;rounded=0;entryX=0;entryY=0.5;entryDx=0;entryDy=0;" edge="1" parent="1" source="D0GV_qfvKO89w9xB9qcV-1" target="D0GV_qfvKO89w9xB9qcV-3">
          <mxGeometry width="50" height="50" relative="1" as="geometry">
            <mxPoint x="130" y="367" as="sourcePoint" />
            <mxPoint x="310" y="215" as="targetPoint" />
          </mxGeometry>
        </mxCell>
        <mxCell id="D0GV_qfvKO89w9xB9qcV-9" value="" style="endArrow=none;html=1;rounded=0;entryX=0;entryY=0.5;entryDx=0;entryDy=0;" edge="1" parent="1" source="D0GV_qfvKO89w9xB9qcV-1" target="D0GV_qfvKO89w9xB9qcV-4">
          <mxGeometry width="50" height="50" relative="1" as="geometry">
            <mxPoint x="130" y="376" as="sourcePoint" />
            <mxPoint x="310" y="325" as="targetPoint" />
          </mxGeometry>
        </mxCell>
        <mxCell id="D0GV_qfvKO89w9xB9qcV-10" value="" style="endArrow=none;html=1;rounded=0;entryX=0;entryY=0.5;entryDx=0;entryDy=0;" edge="1" parent="1" source="D0GV_qfvKO89w9xB9qcV-1" target="D0GV_qfvKO89w9xB9qcV-5">
          <mxGeometry width="50" height="50" relative="1" as="geometry">
            <mxPoint x="130" y="384" as="sourcePoint" />
            <mxPoint x="310" y="435" as="targetPoint" />
          </mxGeometry>
        </mxCell>
      </root>
    </mxGraphModel>
  </diagram>
</mxfile>
